<svg xmlns="http://www.w3.org/2000/svg" width="178" height="28" viewBox="0 0 178 28"><defs><style>.a{fill:#fff;fill-rule:evenodd;}</style></defs><g transform="translate(-291 -6613)"><g transform="translate(0 5865)"><g transform="translate(291 748)"><path class="a" d="M33.242,5.065q-.866-1.64-3.387-1.64H26.264a.916.916,0,0,1-.547-.164.489.489,0,0,1-.229-.409.448.448,0,0,1,.223-.39.988.988,0,0,1,.554-.146h6.825V0H26.6a4.623,4.623,0,0,0-1.872.363,2.893,2.893,0,0,0-1.4,1.257,2.567,2.567,0,0,0,0,2.429,3.382,3.382,0,0,0,3.272,1.6h3.642a.824.824,0,0,1,.522.169.515.515,0,0,1,.216.422q0,.519-.739.519h-6.9V9.069h6.519a4.913,4.913,0,0,0,1.935-.362,2.879,2.879,0,0,0,1.452-1.3,2.422,2.422,0,0,0,.293-1.17A2.469,2.469,0,0,0,33.242,5.065ZM48.192,0,46.562,4.958q-.409,1.132-.64,1.7-.356-1.135-.548-1.7L43.734,0H41.175L39.533,4.953q-.394,1.184-.547,1.7-.423-1.132-.64-1.7L36.717,0H33.9l3.705,9.069H40.27l2.19-5.5,2.177,5.5H47.3L51,0Zm3.283,9.081H53.92V0H51.475ZM65.188,5.065q-.866-1.64-3.387-1.64H58.211a.915.915,0,0,1-.548-.164.489.489,0,0,1-.229-.409.447.447,0,0,1,.223-.39.99.99,0,0,1,.554-.146h6.825V0H58.542A4.619,4.619,0,0,0,56.67.363a2.89,2.89,0,0,0-1.4,1.257,2.567,2.567,0,0,0,0,2.429,3.381,3.381,0,0,0,3.272,1.6h3.642a.825.825,0,0,1,.522.169.516.516,0,0,1,.216.422q0,.519-.738.519h-6.9V9.069H61.8a4.917,4.917,0,0,0,1.935-.362,2.878,2.878,0,0,0,1.452-1.3,2.426,2.426,0,0,0,.293-1.17A2.473,2.473,0,0,0,65.188,5.065Zm11.243,0q-.866-1.64-3.387-1.64H69.454a.915.915,0,0,1-.548-.164.489.489,0,0,1-.229-.409.447.447,0,0,1,.223-.39.99.99,0,0,1,.554-.146h6.825V0H69.785a4.619,4.619,0,0,0-1.872.363,2.891,2.891,0,0,0-1.4,1.257,2.567,2.567,0,0,0,0,2.429,3.382,3.382,0,0,0,3.272,1.6h3.642a.825.825,0,0,1,.522.169.516.516,0,0,1,.216.422q0,.519-.739.519h-6.9V9.069h6.519a4.917,4.917,0,0,0,1.935-.362,2.878,2.878,0,0,0,1.452-1.3,2.426,2.426,0,0,0,.293-1.17,2.473,2.473,0,0,0-.293-1.17Z"/><path class="a" d="M34.761,13.4a2.609,2.609,0,0,0-.882-1.981,3,3,0,0,0-2.115-.821H23.017v9.069h8.746a3,3,0,0,0,2.115-.821,2.607,2.607,0,0,0,.882-1.98ZM32.12,17.209a.506.506,0,0,1-.357.139H25.508V12.91h6.255a.505.505,0,0,1,.357.139.452.452,0,0,1,.149.345v3.471A.452.452,0,0,1,32.12,17.209Zm13.528.151H38.42V16.238h6.995V13.959H38.42V12.91h7.228V10.595H35.929v9.081h9.719Zm12.159-6.765H55.315v6.054a8.287,8.287,0,0,0-.586-.686l-5.334-5.368H46.764v9.081h2.491V13.73a7.148,7.148,0,0,0,.636.748l5,5.2h2.92Zm10.381,0H58.845V12.91h3.4v6.766h2.491V12.91h3.452Zm6.449,0h-2.8l-5.112,9.069H69.6L70.64,17.71h5.19l1.038,1.954H79.75Zm-2.686,4.8a21.564,21.564,0,0,0,1.285-2.5q.233.57.6,1.26.221.412.688,1.236ZM89.767,17.36H82.656V10.595H80.165v9.081h9.6V17.36Z"/><path class="a" d="M27.69,26.528a1.558,1.558,0,0,0-.078-.518.814.814,0,0,0-.25-.366,1.114,1.114,0,0,0-.457-.215,2.977,2.977,0,0,0-.694-.069H24.444a.609.609,0,0,1-.434-.116.541.541,0,0,1-.113-.386.529.529,0,0,1,.113-.383.621.621,0,0,1,.434-.112h2.989c.021-.154.041-.3.058-.452s.034-.3.051-.452h-3.1a2.7,2.7,0,0,0-.678.072,1.044,1.044,0,0,0-.44.224.836.836,0,0,0-.238.4,2.1,2.1,0,0,0-.07.581v.152a1.85,1.85,0,0,0,.07.541.852.852,0,0,0,.234.383,1.015,1.015,0,0,0,.431.224,2.571,2.571,0,0,0,.665.072h1.793a.715.715,0,0,1,.463.109.51.51,0,0,1,.122.393.854.854,0,0,1-.029.241.328.328,0,0,1-.1.155.386.386,0,0,1-.186.082,1.578,1.578,0,0,1-.293.023H23.184q-.013.224-.029.445T23.126,28H26.25a2.792,2.792,0,0,0,.668-.069,1.018,1.018,0,0,0,.447-.224.882.882,0,0,0,.247-.406,2.089,2.089,0,0,0,.078-.614ZM33.846,28V23.459h-.932l-1.658,3.63L29.6,23.459h-.951V28h.8V25.03L30.845,28h.8l1.4-2.97V28Zm1.105,0h.868V23.459h-.868Zm6.176,0v-.9H37.8V23.459h-.867V28ZM46.2,28v-.891h-3.38V26.092h3.284V25.36H42.824v-1H46.2v-.9H41.956V28Zm7.66,0V23.459h-.854v1.848H50.376V23.459h-.855V28h.855V26.126h2.635V28Zm5.347,0v-.891h-3.38V26.092h3.284V25.36H55.832v-1h3.38v-.9H54.964V28Zm6.439,0-2.423-4.541h-.906L59.9,28h.99l.553-1.056h2.667L64.662,28Zm-1.87-1.769H61.776l1-1.881ZM70.626,28v-.9H67.3V23.459H66.43V28Zm2.282,0V24.357h1.613v-.9H70.427v.9H72.04V28Zm6.806,0V23.459h-.854v1.848H76.224V23.459h-.854V28h.854V26.126h2.635V28ZM87,28a1.211,1.211,0,0,0,.427-.069,1.161,1.161,0,0,0,.312-.172.962.962,0,0,0,.206-.218,1.253,1.253,0,0,0,.116-.208l-.553-.574a.7.7,0,0,1-.18.241.556.556,0,0,1-.379.109H84.5a.824.824,0,0,1-.27-.036.325.325,0,0,1-.157-.109A.418.418,0,0,1,84,26.786a1.419,1.419,0,0,1-.02-.251v-1.6a.667.667,0,0,1,.116-.449.537.537,0,0,1,.405-.125h2.416a.576.576,0,0,1,.38.109.678.678,0,0,1,.186.241l.553-.581a1.246,1.246,0,0,0-.116-.207.962.962,0,0,0-.206-.218,1.166,1.166,0,0,0-.312-.172,1.214,1.214,0,0,0-.427-.069H84.495a2.669,2.669,0,0,0-.662.069.851.851,0,0,0-.421.241,1.008,1.008,0,0,0-.225.456,3.123,3.123,0,0,0-.067.706v1.6a3.124,3.124,0,0,0,.067.706.98.98,0,0,0,.225.452.881.881,0,0,0,.421.241,2.557,2.557,0,0,0,.662.072Zm7.223,0L91.8,23.459H90.9L88.473,28h.99l.553-1.056h2.667L93.235,28Zm-1.87-1.769H90.35l1-1.881ZM100.016,28l-1.639-1.5a3.634,3.634,0,0,0,.694-.056,1,1,0,0,0,.463-.208.856.856,0,0,0,.261-.416,2.39,2.39,0,0,0,.08-.68v-.277a2.751,2.751,0,0,0-.067-.653,1.011,1.011,0,0,0-.215-.436.851.851,0,0,0-.389-.241,2,2,0,0,0-.595-.076H95V28h.874V26.515h1.395L98.795,28Zm-1-2.765a.658.658,0,0,1-.1.415.41.41,0,0,1-.331.119H95.87V24.363h2.712q.283,0,.357.162a1.238,1.238,0,0,1,.074.492Zm6.1,2.765v-.891h-3.38V26.092h3.283V25.36h-3.283v-1h3.38v-.9h-4.248V28Z"/><path class="a" d="M20.715,19.736V1.454A1.426,1.426,0,0,0,19.253,0H1.463A1.43,1.43,0,0,0,0,1.454V19.736a1.427,1.427,0,0,0,1.463,1.454h17.79A1.43,1.43,0,0,0,20.715,19.736Zm-3.408-6.994h-4.85V17.7h-4.2V12.742H3.408V8.447H8.259V3.486h4.2V8.447h4.85v4.294Z"/><path class="a" d="M105.439,15.66q-.872-1.64-3.412-1.64H98.409a.925.925,0,0,1-.552-.165.488.488,0,0,1-.231-.408.446.446,0,0,1,.225-.39,1,1,0,0,1,.558-.147h6.877V10.595H98.743a4.679,4.679,0,0,0-1.885.363,2.9,2.9,0,0,0-1.411,1.257,2.548,2.548,0,0,0,0,2.429,3.415,3.415,0,0,0,3.3,1.6h3.67a.837.837,0,0,1,.526.169.516.516,0,0,1,.218.422q0,.519-.744.519H95.459v2.315h6.568a4.981,4.981,0,0,0,1.95-.362,2.894,2.894,0,0,0,1.462-1.3,2.409,2.409,0,0,0,.295-1.17A2.453,2.453,0,0,0,105.439,15.66Zm10.815,1.7h-7.145V16.239h6.914v-2.28h-6.914V12.91h7.145V10.595h-9.609v9.081h9.609ZM128.377,13.4a2.749,2.749,0,0,0-.795-1.988,2.691,2.691,0,0,0-2.014-.819H117.28v9.069h2.463V17.023h2.348l2.8,2.641h3.493l-2.805-2.649a2.969,2.969,0,0,0,1.989-.855,2.571,2.571,0,0,0,.812-1.9Zm-2.611,1.214a.5.5,0,0,1-.353.14h-5.67V12.91h5.67a.5.5,0,0,1,.353.14.46.46,0,0,1,.148.346v.886A.445.445,0,0,1,125.766,14.616Zm12.359-4.021-2.969,5.536a13.308,13.308,0,0,0-.617,1.253,12.456,12.456,0,0,0-.618-1.253l-2.97-5.536H128.1l5.054,9.069h2.771l5.055-9.069Zm3.309,9.081H143.9V10.595h-2.463Zm12.846-2.955q-.538.627-.834.627h-5.8a.5.5,0,0,1-.353-.139.451.451,0,0,1-.147-.345v-3.47a.453.453,0,0,1,.147-.345.5.5,0,0,1,.353-.139h5.8c.18,0,.316.169.411.507l2.1-1.453a2.48,2.48,0,0,0-1.039-1.03,3.212,3.212,0,0,0-1.476-.339h-5.8a2.944,2.944,0,0,0-2.092.821,2.623,2.623,0,0,0-.872,1.98v3.466a2.624,2.624,0,0,0,.872,1.98,2.946,2.946,0,0,0,2.092.821h5.8a3.064,3.064,0,0,0,1.424-.41,4.835,4.835,0,0,0,1.245-.965Zm12.251.639h-7.145V16.239H166.3v-2.28h-6.915V12.91h7.145V10.595h-9.608v9.081h9.608Zm11.174-1.7q-.873-1.64-3.412-1.64h-3.618a.92.92,0,0,1-.551-.165.486.486,0,0,1-.232-.408.447.447,0,0,1,.225-.39,1,1,0,0,1,.558-.147h6.876V10.595h-6.542a4.681,4.681,0,0,0-1.886.363,2.907,2.907,0,0,0-1.412,1.257,2.548,2.548,0,0,0,0,2.429,3.416,3.416,0,0,0,3.3,1.6h3.669a.837.837,0,0,1,.526.169.515.515,0,0,1,.217.422q0,.519-.743.519h-6.954v2.315h6.569a4.985,4.985,0,0,0,1.95-.362,2.894,2.894,0,0,0,1.462-1.3A2.409,2.409,0,0,0,178,16.83a2.453,2.453,0,0,0-.295-1.17Z"/></g></g></g></svg>