<?xml version="1.0" encoding="UTF-8"?>
<svg width="320px" height="42px" viewBox="0 0 320 42" version="1.1" xmlns="http://www.w3.org/2000/svg" xmlns:xlink="http://www.w3.org/1999/xlink">
    <!-- Generator: sketchtool 53 (72520) - https://sketchapp.com -->
    <title>D84CB3C0-DC01-455B-B501-766FB95DB8C0@2x</title>
    <desc>Created with sketchtool.</desc>
    <defs>
        <polygon id="path-1" points="97.4222222 42 105.955556 42 105.955556 32.9 97.4222222 32.9"></polygon>
    </defs>
    <g id="Page-1" stroke="none" stroke-width="1" fill="none" fill-rule="evenodd">
        <g id="FINAL-Copy" transform="translate(-152.000000, -64.000000)">
            <g id="MENU" transform="translate(0.000000, 40.000000)">
                <g id="pnid_logo-copy" transform="translate(152.000000, 24.000000)">
                    <path d="M4.82769824,15.9270392 C4.82769824,20.7185315 9.27753624,23.5497969 13.8348942,23.5497969 C21.8525868,23.5497969 30.1694192,17.269261 30.1694192,10.0588538 C30.1694192,6.31333651 27.0422902,2.51158959 21.0291539,2.51158959 C11.9389226,2.51158959 4.82769824,9.75271479 4.82769824,15.9270392 M17.069011,27.3 C6.5826164,27.3 3.55555556,20.8486927 3.55555556,17.0089387 C3.55555556,7.47489463 14.7663795,0 24.0482305,0 C34.6272413,0 36.9777778,4.87167159 36.9777778,10.5987623 C36.9777778,19.5148012 26.1438062,27.3 17.069011,27.3" id="Fill-1" fill="#FF0000"></path>
                    <path d="M52.6927251,13.9606513 C55.5492341,13.8568426 56.0191009,13.5464496 56.7782413,10.1966839 C57.3562477,7.53742647 57.1037416,6.70850665 54.2834594,6.70850665 L49.3306633,6.70850665 L47.739929,13.9606513 L52.6927251,13.9606513 Z M37.6888889,26.6 L43.4375929,0.7 L57.0675148,0.7 C63.7916385,0.7 65.7440999,3.42794672 64.2258192,10.1966839 C62.5988581,17.4829149 60.3571231,19.9696744 52.8014055,19.9696744 L46.4022415,19.9696744 L44.9201875,26.6 L37.6888889,26.6 Z" id="Fill-6" fill="#FF0000"></path>
                    <polygon id="Fill-11" fill="#FF0000" points="70.494148 26.6 63.2888889 26.6 69.0167816 0.7 81.1934701 0.7 84.5442146 20.5908571 84.832468 20.5908571 88.7952797 0.7 96 0.7 90.2721073 26.6 77.9876605 26.6 74.7452131 6.70862647 74.4569596 6.70862647"></polygon>
                    <polygon id="Fill-16" fill="#FF0000" points="102.419967 26.6 95.2888889 26.6 100.957811 0.7 108.088889 0.7"></polygon>
                    <path d="M114.463194,20.5908571 L120.745006,20.5908571 C123.401395,20.5908571 124.72959,18.8988973 125.340001,16.1703797 L126.560286,10.748981 C127.278606,7.39914852 126.309035,6.70862647 123.796525,6.70862647 L117.514713,6.70862647 L114.463194,20.5908571 Z M111.663463,0.7 L125.304031,0.7 C132.806665,0.7 135.570427,3.39339754 133.955548,10.748981 L132.734726,16.1703797 C131.19125,23.249651 128.068329,26.6 120.565695,26.6 L105.955556,26.6 L111.663463,0.7 Z" id="Fill-21" fill="#FF0000"></path>
                    <polygon id="Fill-26" fill="#FF0000" points="146.488889 18.9 145.678848 22.4 139.377778 22.4 140.188382 18.9"></polygon>
                    <path d="M163.392394,18.7430287 C165.120996,18.6782504 165.405369,18.4860054 165.865477,16.4031766 C166.215351,14.7502872 166.061982,14.2351958 164.355214,14.2351958 L161.357586,14.2351958 L160.394234,18.7430287 L163.392394,18.7430287 Z M154.311111,26.6 L157.790148,10.5 L166.040148,10.5 C170.110296,10.5 171.291987,12.1957267 170.372835,16.4031766 C169.388182,20.932428 168.031821,22.4782245 163.457896,22.4782245 L159.584784,22.4782245 L158.687466,26.6 L154.311111,26.6 Z" id="Fill-31" fill="#FF0000"></path>
                    <path d="M181.264772,20.3247485 L182.073862,16.7541695 C182.590826,14.4089202 181.826047,14.1759893 179.488494,14.1759893 C177.150394,14.1759893 176.318875,14.4089202 175.734623,16.7541695 L174.925533,20.3247485 C174.453427,22.691594 175.172254,22.9240107 177.510901,22.9240107 C179.848454,22.9240107 180.725378,22.691594 181.264772,20.3247485 M170.182045,20.7895819 L171.194092,16.3099039 C172.295307,11.4296669 175.757052,10.5 180.320013,10.5 C184.883521,10.5 187.896136,11.4296669 186.794373,16.3099039 L185.782874,20.7895819 C184.681111,25.6703331 181.241795,26.6 176.678835,26.6 C172.115327,26.6 169.08083,25.6703331 170.182045,20.7895819" id="Fill-36" fill="#FF0000"></path>
                    <path d="M195.988776,18.5930984 C197.90651,18.5930984 197.995505,17.9061358 198.396526,16.0813751 C198.709636,14.6426717 198.419317,14.2351958 196.948186,14.2351958 L193.490947,14.2351958 L192.532622,18.5930984 L195.988776,18.5930984 Z M189.856803,10.5 L198.464357,10.5 C202.322074,10.5642558 204.039027,11.3588338 203.146363,15.3729939 C202.56681,18.0565885 202.210288,19.6238035 198.888169,20.3316623 L198.843129,20.5035335 C200.671868,20.5677894 201.630192,21.5342386 201.229172,23.3584769 L200.515584,26.6 L196.056065,26.6 L196.546081,24.3463448 C196.858648,23.1437685 196.501583,22.3272494 195.163402,22.3272494 L191.707248,22.3272494 L190.771172,26.6 L186.311111,26.6 L189.856803,10.5 Z" id="Fill-41" fill="#FF0000"></path>
                    <polygon id="Fill-46" fill="#FF0000" points="210.885678 26.6 206.377504 26.6 209.127715 14.2351958 204.8 14.2351958 205.634278 10.5 219.022222 10.5 218.187944 14.2351958 213.635341 14.2351958"></polygon>
                    <path d="M234.666667,10.5 L232.308024,21.1473008 C231.372691,25.407465 229.013507,26.6 224.117496,26.6 C217.440724,26.6 217.084896,24.9819668 217.930866,21.1473008 L220.289509,10.5 L224.740871,10.5 L222.403892,21.0628231 C222.003113,22.873652 223.071678,22.894901 224.941261,22.894901 C226.832507,22.894901 227.501376,22.7446033 227.923278,20.8710639 L230.215304,10.5 L234.666667,10.5 Z" id="Fill-51" fill="#FF0000"></path>
                    <path d="M246.242761,15.5497605 C246.511509,13.9439768 245.05547,13.9650581 243.711181,13.9650581 C240.485653,13.9650581 240.172204,14.8952095 239.567656,17.4511976 L238.985458,20.0287813 C238.357469,22.8398026 239.321257,23.1349419 241.650594,23.1349419 C243.935774,23.1349419 244.629724,22.6495561 245.144871,20.4519513 L242.053444,20.4519513 L242.703783,17.5149559 L250.342131,17.5149559 L249.714687,20.2827862 C248.527396,25.6287142 246.869659,26.6 240.866698,26.6 C235.580037,26.6 233.071353,25.7552025 234.236294,20.6206023 L235.154291,16.5220746 C236.341582,11.2820676 239.567656,10.5 244.495622,10.5 C248.841391,10.5 251.909922,10.5210814 250.790227,15.5497605 L246.242761,15.5497605 Z" id="Fill-56" fill="#FF0000"></path>
                    <path d="M259.886536,13.7201045 L259.84342,13.7201045 L256.364723,20.696301 L260.383417,20.696301 L259.886536,13.7201045 Z M254.765763,23.830731 L253.382907,26.6 L248.888889,26.6 L257.185498,10.5 L263.7538,10.5 L265.244444,26.6 L260.837183,26.6 L260.577438,23.830731 L254.765763,23.830731 Z" id="Fill-61" fill="#FF0000"></path>
                    <polygon id="Fill-66" fill="#FF0000" points="271.164476 22.864683 278.044444 22.864683 277.231386 26.6 265.955556 26.6 269.4501 10.5 273.846498 10.5"></polygon>
                    <path d="M4.87244167,37.5592253 C6.09623694,37.534953 6.38151354,37.3048939 6.65490362,36.0305984 C6.91640717,34.7441668 6.80942845,34.3800823 5.52620054,34.3922185 L3.29153383,34.3922185 L2.63829176,37.5592253 L4.87244167,37.5592253 Z M1.88944068,32.9 L5.83473339,32.9 C8.22340812,32.9 8.88905353,33.4820074 8.36604642,36.0305984 C7.8316696,38.602934 6.89263412,39.0514438 4.56339201,39.0514438 L2.32924211,39.0514438 L1.7111428,42 L0,42 L1.88944068,32.9 Z" id="Fill-73" fill="#505663"></path>
                    <path d="M13.7430694,37.4985446 C15.0804745,37.4985446 15.4584369,37.2442132 15.7612456,35.9092369 C16.0388202,34.6233329 15.8495648,34.3922185 14.5505593,34.3922185 L12.027702,34.3922185 L11.3463824,37.4985446 L13.7430694,37.4985446 Z M11.0183396,38.9907631 L10.349637,42 L8.53333333,42 L10.539441,32.9 L15.3706662,32.9 C17.4393105,32.9485446 18.095396,33.5674881 17.6406344,35.6301055 C17.3383743,36.9772179 17.0481826,37.9597182 15.3959003,38.190305 L15.3832833,38.2383219 C16.6444376,38.3475473 16.808459,39.015563 16.5308844,40.301467 L16.1523735,42 L14.3360698,42 L14.7145807,40.301467 C14.8786021,39.5368897 14.6767296,39.0034269 13.8061546,38.9907631 L11.0183396,38.9907631 Z" id="Fill-75" fill="#505663"></path>
                    <path d="M20.2098358,36.1720326 L19.7040533,38.5846439 C19.3186951,40.363724 19.6317986,40.5309347 21.3659102,40.5309347 C22.9429465,40.5309347 23.5330262,40.3154303 23.9058183,38.5846439 L24.4116009,36.1720326 C24.8090014,34.4885015 24.2309642,34.3690653 22.6900553,34.3690653 C20.8234768,34.3690653 20.5590666,34.7512611 20.2098358,36.1720326 M26.1451889,36.1720326 L25.6399299,38.5846439 C25.0257654,41.4500742 23.7859175,42 21.0522832,42 C18.2594838,42 17.3322158,41.5222552 17.9704652,38.5846439 L18.4757242,36.1720326 C19.0778463,33.3902077 20.1375812,32.9 23.0026352,32.9 C25.6038026,32.9 26.7713959,33.2946588 26.1451889,36.1720326" id="Fill-77" fill="#505663"></path>
                    <path d="M35.0801435,37.1752967 L34.71257,38.7991098 C34.1168474,41.4500742 33.2808519,42 29.8971918,42 C26.8563063,42 25.8296355,41.4978487 26.5140827,38.4652077 L26.9698298,36.4114243 C27.6416021,33.4255192 29.0099454,32.9005192 31.9499823,32.9005192 C34.2689468,32.9005192 36.1194892,32.7930266 35.3970172,35.6714391 L33.5850506,35.6714391 C33.8892494,34.3576409 33.2048022,34.3695845 31.6209847,34.3695845 C29.4915934,34.3695845 29.2132956,34.6795993 28.7950223,36.4114243 L28.3387242,38.4652077 C27.9331259,40.3398368 28.1992998,40.5309347 30.2267404,40.5309347 C31.9626573,40.5309347 32.50768,40.4951038 32.8879285,38.7991098 L32.9513032,38.4771513 L30.5562891,38.4771513 L30.8604878,37.1752967 L35.0801435,37.1752967 Z" id="Fill-79" fill="#505663"></path>
                    <path d="M40.0541805,37.4985446 C41.3915857,37.4985446 41.769548,37.2442132 42.0723567,35.9092369 C42.3504799,34.6233329 42.1606759,34.3922185 40.8616704,34.3922185 L38.3388131,34.3922185 L37.6574935,37.4985446 L40.0541805,37.4985446 Z M37.3294507,38.9907631 L36.6607481,42 L34.8444444,42 L36.8505521,32.9 L41.6817773,32.9 C43.7504216,32.9485446 44.4065072,33.5674881 43.9517455,35.6301055 C43.6494854,36.9772179 43.3592937,37.9597182 41.7070114,38.190305 L41.6943944,38.2383219 C42.9555488,38.3475473 43.1195701,39.015563 42.8419955,40.301467 L42.4634846,42 L40.6471809,42 L41.0256918,40.301467 C41.1897132,39.5368897 40.9878407,39.0034269 40.1172657,38.9907631 L37.3294507,38.9907631 Z" id="Fill-81" fill="#505663"></path>
                    <path d="M49.2853503,34.2344486 L49.261475,34.2344486 L46.743153,38.9543546 L49.8344815,38.9543546 L49.2853503,34.2344486 Z M46.0746454,40.2766671 L45.1559665,42 L43.3777778,42 L48.247295,32.9 L50.7775548,32.9 L51.9111111,42 L50.1687353,42 L49.9419203,40.2766671 L46.0746454,40.2766671 Z" id="Fill-83" fill="#505663"></path>
                    <polygon id="Fill-85" fill="#505663" points="58.8364887 42 57.2397189 42 55.9519665 34.3679462 55.9148198 34.3679462 54.4047256 42 52.6222222 42 54.5904591 32.9 57.4502168 32.9 58.5145506 39.6587788 58.5640796 39.6587788 62.5010917 32.9 65.4222222 32.9 63.4539853 42 61.671482 42 63.4787498 34.3315377 63.4168386 34.3315377"></polygon>
                    <path d="M70.6186836,34.2344486 L70.5948084,34.2344486 L68.0764863,38.9543546 L71.1678149,38.9543546 L70.6186836,34.2344486 Z M67.4079787,40.2766671 L66.4892998,42 L64.7111111,42 L69.5806284,32.9 L72.1108881,32.9 L73.2444444,42 L71.5020687,42 L71.2752536,40.2766671 L67.4079787,40.2766671 Z" id="Fill-87" fill="#505663"></path>
                    <polygon id="Fill-89" fill="#505663" points="87.0904709 32.9 88.8888889 32.9 86.9030791 42 83.9178464 42 81.5947313 34.3922185 81.5322674 34.3922185 80.0211834 42 78.2222222 42 80.2085752 32.9 83.180772 32.9 85.5288726 40.5077815 85.5788437 40.5077815"></polygon>
                    <path d="M94.0853503,34.2344486 L94.061475,34.2344486 L91.543153,38.9543546 L94.6344815,38.9543546 L94.0853503,34.2344486 Z M90.8746454,40.2766671 L89.9559665,42 L88.1777778,42 L93.047295,32.9 L95.5775548,32.9 L96.7111111,42 L94.9687353,42 L94.7419203,40.2766671 L90.8746454,40.2766671 Z" id="Fill-91" fill="#505663"></path>
                    <mask id="mask-2" fill="white">
                        <use xlink:href="#path-1"></use>
                    </mask>
                    <g id="Clip-94"></g>
                    <path d="M103.994012,35.9660736 L104.10463,35.4768507 C104.325865,34.4392623 103.932558,34.3676687 102.384446,34.3676687 C100.602274,34.3676687 100.221258,34.6540431 99.8407768,36.4080862 L99.4105974,38.3878048 C99.0295813,40.1771259 99.1770714,40.5231616 101.032454,40.5231616 C102.457657,40.5231616 103.109072,40.4754325 103.37947,39.1991989 L103.490088,38.7099759 L105.259434,38.7099759 L105.13706,39.294657 C104.583972,41.9908303 103.010745,41.8953722 100.712892,41.9908303 C97.4445973,42.110153 97.0881629,41.0720458 97.6284255,38.4599172 L98.0714301,36.4080862 C98.6977286,33.5443424 99.9877325,32.9 102.703474,32.9 C105.001861,32.9 106.304156,32.9119323 105.873976,35.4768507 L105.763359,35.9660736 L103.994012,35.9660736 Z" id="Fill-93" fill="#505663"></path>
                    <polygon id="Fill-96" fill="#505663" points="107.645567 42 105.955556 42 107.82161 32.9 109.511111 32.9"></polygon>
                    <path d="M111.943169,36.1720326 L111.437387,38.5846439 C111.052028,40.363724 111.365132,40.5309347 113.099244,40.5309347 C114.67628,40.5309347 115.26636,40.3154303 115.639152,38.5846439 L116.144934,36.1720326 C116.542335,34.4885015 115.964298,34.3690653 114.423389,34.3690653 C112.55681,34.3690653 112.2924,34.7512611 111.943169,36.1720326 M117.878522,36.1720326 L117.373263,38.5846439 C116.759099,41.4500742 115.519251,42 112.785616,42 C109.992817,42 109.065549,41.5222552 109.703799,38.5846439 L110.209058,36.1720326 C110.81118,33.3902077 111.870915,32.9 114.735968,32.9 C117.337136,32.9 118.504729,33.2946588 117.878522,36.1720326" id="Fill-98" fill="#505663"></path>
                    <polygon id="Fill-100" fill="#505663" points="126.912693 32.9 128.711111 32.9 126.725301 42 123.740069 42 121.416954 34.3922185 121.35449 34.3922185 119.843406 42 118.044444 42 120.030797 32.9 123.002994 32.9 125.351095 40.5077815 125.401066 40.5077815"></polygon>
                    <path d="M133.907573,34.2344486 L133.883697,34.2344486 L131.365375,38.9543546 L134.456704,38.9543546 L133.907573,34.2344486 Z M130.696868,40.2766671 L129.778189,42 L128,42 L132.869517,32.9 L135.399777,32.9 L136.533333,42 L134.790958,42 L134.564142,40.2766671 L130.696868,40.2766671 Z" id="Fill-102" fill="#505663"></path>
                    <polygon id="Fill-104" fill="#505663" points="139.336742 40.5077815 143.644444 40.5077815 143.324364 42 137.244444 42 139.201323 32.9 140.974076 32.9"></polygon>
                    <path d="M153.552928,40.5077815 C154.724903,40.5077815 155.317198,39.4519367 155.522688,38.4325003 L155.982018,36.2854575 C156.308384,34.7684391 155.885317,34.3922185 154.555676,34.3922185 L151.969447,34.3922185 L150.676595,40.5077815 L153.552928,40.5077815 Z M150.543631,32.9 L154.870481,32.9 C157.372096,32.9 158.241881,33.8102111 157.722638,36.2854575 L157.263308,38.4325003 C156.864415,40.3252116 155.982018,42 153.238649,42 L148.622222,42 L150.543631,32.9 Z" id="Fill-106" fill="#505663"></path>
                    <polygon id="Fill-108" fill="#505663" points="160.884432 36.6616781 165.334712 36.6616781 165.005531 38.0932158 160.5547 38.0932158 160.022607 40.5077815 164.751891 40.5077815 164.421608 42 157.866667 42 159.883105 32.9 166.4 32.9 166.069717 34.3922185 161.378479 34.3922185"></polygon>
                    <polygon id="Fill-110" fill="#505663" points="171.645567 42 169.955556 42 171.82161 32.9 173.511111 32.9"></polygon>
                    <polygon id="Fill-112" fill="#505663" points="179.725655 42 178.128414 42 176.841254 34.3679462 176.804109 34.3679462 175.294078 42 173.511111 42 175.479265 32.9 178.338903 32.9 179.403192 39.6587788 179.453257 39.6587788 183.389565 32.9 186.311111 32.9 184.342957 42 182.560529 42 184.36772 34.3315377 184.305812 34.3315377"></polygon>
                    <path d="M190.472296,37.5592253 C191.696055,37.534953 191.981323,37.3048939 192.254705,36.0305984 C192.516201,34.7441668 192.409225,34.3800823 191.126036,34.3922185 L188.891436,34.3922185 L188.238213,37.5592253 L190.472296,37.5592253 Z M187.489901,32.9 L191.434559,32.9 C193.823163,32.9 194.488788,33.4820074 193.966313,36.0305984 C193.431436,38.602934 192.492428,39.0514438 190.163256,39.0514438 L187.929173,39.0514438 L187.311092,42 L185.6,42 L187.489901,32.9 Z" id="Fill-114" fill="#505663"></path>
                    <polygon id="Fill-116" fill="#505663" points="196.225631 40.5077815 200.533333 40.5077815 200.213253 42 194.133333 42 196.090212 32.9 197.862965 32.9"></polygon>
                    <path d="M206.441066,34.2344486 L206.417192,34.2344486 L203.899542,38.9543546 L206.990163,38.9543546 L206.441066,34.2344486 Z M203.230556,40.2766671 L202.311933,42 L200.533333,42 L205.402554,32.9 L207.93266,32.9 L209.066667,42 L207.324397,42 L207.097596,40.2766671 L203.230556,40.2766671 Z" id="Fill-118" fill="#505663"></path>
                    <polygon id="Fill-120" fill="#505663" points="218.645483 32.9 220.444444 32.9 218.458091 42 215.472859 42 213.150287 34.3922185 213.087823 34.3922185 211.576196 42 209.777778 42 211.763588 32.9 214.736328 32.9 217.084428 40.5077815 217.134399 40.5077815"></polygon>
                    <polygon id="Fill-122" fill="#505663" points="224.117817 42 222.270865 42 223.976731 34.3922185 221.155556 34.3922185 221.489033 32.9 228.977778 32.9 228.6443 34.3922185 225.823683 34.3922185"></polygon>
                    <polygon id="Fill-124" fill="#505663" points="229.86221 36.6616781 234.31249 36.6616781 233.983309 38.0932158 229.532478 38.0932158 229.000385 40.5077815 233.729669 40.5077815 233.399385 42 226.844444 42 228.860883 32.9 235.377778 32.9 235.047494 34.3922185 230.356256 34.3922185"></polygon>
                    <path d="M237.377227,39.073735 L237.276767,39.4917564 C237.051952,40.5188948 237.501581,40.5905556 239.162713,40.5905556 C240.798866,40.5905556 241.085586,40.3039123 241.310401,39.2648305 C241.597664,37.9873986 240.848825,38.1540879 239.462466,38.0829463 C237.477145,37.9629924 235.853482,38.0351725 236.440499,35.4314962 C236.977557,32.9721801 238.625656,32.9 240.873261,32.9 C242.783644,32.9 244.332368,32.9602366 243.8078,35.3125808 L243.745895,35.599224 L241.947376,35.599224 L242.009825,35.3125808 C242.22215,34.3456791 241.822479,34.3093294 240.561018,34.3093294 C238.775532,34.3093294 238.451343,34.4765379 238.238475,35.4314962 C237.98868,36.5308146 238.213495,36.566645 240.024504,36.6741363 C242.871072,36.8408256 243.620455,36.9846665 243.10892,39.2648305 C242.559372,41.7849025 241.260442,41.999885 238.85047,41.999885 C236.777721,41.999885 234.917297,42.059083 235.479334,39.4917564 L235.578709,39.073735 L237.377227,39.073735 Z" id="Fill-126" fill="#505663"></path>
                    <path d="M252.397372,40.5077815 C253.569348,40.5077815 254.161642,39.4519367 254.367132,38.4325003 L254.826462,36.2854575 C255.152829,34.7684391 254.729761,34.3922185 253.400121,34.3922185 L250.813892,34.3922185 L249.52104,40.5077815 L252.397372,40.5077815 Z M249.388076,32.9 L253.714925,32.9 C256.216541,32.9 257.086325,33.8102111 256.567082,36.2854575 L256.107752,38.4325003 C255.70886,40.3252116 254.826462,42 252.083094,42 L247.466667,42 L249.388076,32.9 Z" id="Fill-128" fill="#505663"></path>
                    <polygon id="Fill-130" fill="#505663" points="259.728876 36.6616781 264.179156 36.6616781 263.849976 38.0932158 259.399144 38.0932158 258.867051 40.5077815 263.596336 40.5077815 263.266052 42 256.711111 42 258.727549 32.9 265.244444 32.9 264.914161 34.3922185 260.222923 34.3922185"></polygon>
                    <polygon id="Fill-132" fill="#505663" points="273.401039 32.9 275.2 32.9 273.213647 42 270.228414 42 267.905842 34.3922185 267.843378 34.3922185 266.331751 42 264.533333 42 266.519143 32.9 269.491883 32.9 271.839984 40.5077815 271.889955 40.5077815"></polygon>
                    <polygon id="Fill-134" fill="#505663" points="278.873373 42 277.02642 42 278.732286 34.3922185 275.911111 34.3922185 276.244589 32.9 283.733333 32.9 283.399856 34.3922185 280.579238 34.3922185"></polygon>
                    <path d="M288.957173,31.1087736 L286.426914,32.1656604 L286.235912,31.5262893 L288.634857,30.1 L288.957173,31.1087736 Z M286.79698,34.1324214 L286.773105,34.1324214 L284.254783,38.9148742 L287.346112,38.9148742 L286.79698,34.1324214 Z M283.586276,40.2540252 L282.667597,42 L280.888889,42 L285.758406,32.7804403 L288.288666,32.7804403 L289.422222,42 L287.680365,42 L287.45355,40.2540252 L283.586276,40.2540252 Z" id="Fill-136" fill="#505663"></path>
                    <path d="M295.343099,37.4985446 C296.680512,37.4985446 297.059025,37.2442132 297.361835,35.9092369 C297.639411,34.6233329 297.450155,34.3922185 296.150593,34.3922185 L293.627722,34.3922185 L292.946398,37.4985446 L295.343099,37.4985446 Z M292.618354,38.9907631 L291.949647,42 L290.133333,42 L292.138904,32.9 L296.970705,32.9 C299.038812,32.9485446 299.69545,33.5674881 299.240686,35.6301055 C298.938424,36.9772179 298.648231,37.9597182 296.995939,38.190305 L296.982773,38.2383219 C298.244484,38.3475473 298.408506,39.015563 298.13093,40.301467 L297.752965,42 L295.936103,42 L296.314616,40.301467 C296.478089,39.5368897 296.276764,39.0034269 295.406184,38.9907631 L292.618354,38.9907631 Z" id="Fill-138" fill="#505663"></path>
                    <polygon id="Fill-140" fill="#505663" points="301.067789 42 299.377778 42 301.243832 32.9 302.933333 32.9"></polygon>
                    <path d="M305.365426,36.1720326 L304.859647,38.5846439 C304.474291,40.363724 304.787393,40.5309347 306.52097,40.5309347 C308.09852,40.5309347 308.688596,40.3154303 309.061909,38.5846439 L309.567165,36.1720326 C309.964563,34.4885015 309.387053,34.3690653 307.84563,34.3690653 C305.979587,34.3690653 305.714655,34.7512611 305.365426,36.1720326 M311.300743,36.1720326 L310.795487,38.5846439 C310.181326,41.4500742 308.940962,42 306.207869,42 C303.414563,42 302.487824,41.5222552 303.12607,38.5846439 L303.631326,36.1720326 C304.233444,33.3902077 305.293172,32.9 308.158732,32.9 C310.75936,32.9 311.926946,33.2946588 311.300743,36.1720326" id="Fill-142" fill="#505663"></path>
                    <path d="M313.466116,39.073735 L313.365656,39.4917564 C313.140841,40.5188948 313.59047,40.5905556 315.251602,40.5905556 C316.887755,40.5905556 317.174475,40.3039123 317.39929,39.2648305 C317.686553,37.9873986 316.937713,38.1540879 315.551355,38.0829463 C313.566034,37.9629924 311.942371,38.0351725 312.529388,35.4314962 C313.066445,32.9721801 314.714545,32.9 316.96215,32.9 C318.872533,32.9 320.421257,32.9602366 319.896689,35.3125808 L319.834784,35.599224 L318.036265,35.599224 L318.098714,35.3125808 C318.311039,34.3456791 317.911368,34.3093294 316.649907,34.3093294 C314.864421,34.3093294 314.540232,34.4765379 314.327363,35.4314962 C314.077569,36.5308146 314.302384,36.566645 316.113392,36.6741363 C318.959961,36.8408256 319.709344,36.9846665 319.197808,39.2648305 C318.648261,41.7849025 317.349331,41.999885 314.939359,41.999885 C312.86661,41.999885 311.006186,42.059083 311.568223,39.4917564 L311.667598,39.073735 L313.466116,39.073735 Z" id="Fill-144" fill="#505663"></path>
                </g>
            </g>
        </g>
    </g>
</svg>